<mxfile host="app.diagrams.net" agent="Mozilla/5.0 (Windows NT 10.0; Win64; x64) AppleWebKit/537.36 (KHTML, like Gecko) Chrome/136.0.0.0 Safari/537.36" version="28.2.2">
  <diagram name="PÃ¡gina-1" id="fGDx9vEcWLXgqeJ58b_-">
    <mxGraphModel dx="2491" dy="2498" grid="1" gridSize="10" guides="1" tooltips="1" connect="1" arrows="1" fold="1" page="1" pageScale="1" pageWidth="827" pageHeight="1169" math="0" shadow="0">
      <root>
        <mxCell id="0" />
        <mxCell id="bbPRQtb84Fzo9ja4CG_w-1" value="Outside" style="" parent="0" />
        <mxCell id="bbPRQtb84Fzo9ja4CG_w-3" value="" style="points=[];aspect=fixed;html=1;align=center;shadow=0;dashed=0;fillColor=#FF6A00;strokeColor=none;shape=mxgraph.alibaba_cloud.domain_and_website;" vertex="1" parent="bbPRQtb84Fzo9ja4CG_w-1">
          <mxGeometry x="10" y="160" width="99.13" height="80" as="geometry" />
        </mxCell>
        <mxCell id="bbPRQtb84Fzo9ja4CG_w-5" value="AWS Account" style="points=[[0,0],[0.25,0],[0.5,0],[0.75,0],[1,0],[1,0.25],[1,0.5],[1,0.75],[1,1],[0.75,1],[0.5,1],[0.25,1],[0,1],[0,0.75],[0,0.5],[0,0.25]];outlineConnect=0;gradientColor=none;html=1;whiteSpace=wrap;fontSize=12;fontStyle=0;container=1;pointerEvents=0;collapsible=0;recursiveResize=0;shape=mxgraph.aws4.group;grIcon=mxgraph.aws4.group_account;strokeColor=#CD2264;fillColor=none;verticalAlign=top;align=left;spacingLeft=30;fontColor=#CD2264;dashed=0;" vertex="1" parent="bbPRQtb84Fzo9ja4CG_w-1">
          <mxGeometry x="180" y="-120" width="2290" height="1050" as="geometry" />
        </mxCell>
        <mxCell id="1" value="AWS services" parent="0" />
        <mxCell id="bbPRQtb84Fzo9ja4CG_w-22" style="edgeStyle=orthogonalEdgeStyle;rounded=0;orthogonalLoop=1;jettySize=auto;html=1;" edge="1" parent="1" source="bbPRQtb84Fzo9ja4CG_w-18" target="bbPRQtb84Fzo9ja4CG_w-19">
          <mxGeometry relative="1" as="geometry" />
        </mxCell>
        <mxCell id="bbPRQtb84Fzo9ja4CG_w-18" value="CloudFront" style="sketch=0;points=[[0,0,0],[0.25,0,0],[0.5,0,0],[0.75,0,0],[1,0,0],[0,1,0],[0.25,1,0],[0.5,1,0],[0.75,1,0],[1,1,0],[0,0.25,0],[0,0.5,0],[0,0.75,0],[1,0.25,0],[1,0.5,0],[1,0.75,0]];outlineConnect=0;fontColor=#232F3E;fillColor=#8C4FFF;strokeColor=#ffffff;dashed=0;verticalLabelPosition=bottom;verticalAlign=top;align=center;html=1;fontSize=12;fontStyle=0;aspect=fixed;shape=mxgraph.aws4.resourceIcon;resIcon=mxgraph.aws4.cloudfront;" vertex="1" parent="1">
          <mxGeometry x="530" y="120" width="78" height="78" as="geometry" />
        </mxCell>
        <mxCell id="bbPRQtb84Fzo9ja4CG_w-19" value="API Gateway" style="sketch=0;points=[[0,0,0],[0.25,0,0],[0.5,0,0],[0.75,0,0],[1,0,0],[0,1,0],[0.25,1,0],[0.5,1,0],[0.75,1,0],[1,1,0],[0,0.25,0],[0,0.5,0],[0,0.75,0],[1,0.25,0],[1,0.5,0],[1,0.75,0]];outlineConnect=0;fontColor=#232F3E;fillColor=#8C4FFF;strokeColor=#ffffff;dashed=0;verticalLabelPosition=bottom;verticalAlign=top;align=center;html=1;fontSize=12;fontStyle=0;aspect=fixed;shape=mxgraph.aws4.resourceIcon;resIcon=mxgraph.aws4.api_gateway;" vertex="1" parent="1">
          <mxGeometry x="766.3" y="120" width="78" height="78" as="geometry" />
        </mxCell>
        <mxCell id="bbPRQtb84Fzo9ja4CG_w-20" value="S3 Static" style="sketch=0;outlineConnect=0;fontColor=#232F3E;gradientColor=none;fillColor=#7AA116;strokeColor=none;dashed=0;verticalLabelPosition=bottom;verticalAlign=top;align=center;html=1;fontSize=12;fontStyle=0;aspect=fixed;pointerEvents=1;shape=mxgraph.aws4.bucket;" vertex="1" parent="1">
          <mxGeometry x="536.3" y="290" width="65.39" height="68" as="geometry" />
        </mxCell>
        <mxCell id="bbPRQtb84Fzo9ja4CG_w-21" style="edgeStyle=orthogonalEdgeStyle;rounded=0;orthogonalLoop=1;jettySize=auto;html=1;entryX=0.5;entryY=1;entryDx=0;entryDy=0;entryPerimeter=0;" edge="1" parent="1" source="bbPRQtb84Fzo9ja4CG_w-20" target="bbPRQtb84Fzo9ja4CG_w-18">
          <mxGeometry relative="1" as="geometry" />
        </mxCell>
        <mxCell id="bbPRQtb84Fzo9ja4CG_w-23" value="Security" parent="0" />
        <mxCell id="bbPRQtb84Fzo9ja4CG_w-55" style="edgeStyle=orthogonalEdgeStyle;rounded=0;orthogonalLoop=1;jettySize=auto;html=1;" edge="1" parent="bbPRQtb84Fzo9ja4CG_w-23" source="bbPRQtb84Fzo9ja4CG_w-49" target="bbPRQtb84Fzo9ja4CG_w-18">
          <mxGeometry relative="1" as="geometry" />
        </mxCell>
        <mxCell id="bbPRQtb84Fzo9ja4CG_w-49" value="" style="rounded=0;whiteSpace=wrap;html=1;" vertex="1" parent="bbPRQtb84Fzo9ja4CG_w-23">
          <mxGeometry x="280" y="-40" width="160" height="500" as="geometry" />
        </mxCell>
        <mxCell id="bbPRQtb84Fzo9ja4CG_w-50" value="AWS Shield" style="sketch=0;outlineConnect=0;fontColor=#232F3E;gradientColor=none;strokeColor=#ffffff;fillColor=#232F3E;dashed=0;verticalLabelPosition=middle;verticalAlign=bottom;align=center;html=1;whiteSpace=wrap;fontSize=10;fontStyle=1;spacing=3;shape=mxgraph.aws4.productIcon;prIcon=mxgraph.aws4.shield;" vertex="1" parent="bbPRQtb84Fzo9ja4CG_w-23">
          <mxGeometry x="320" y="-20" width="80" height="100" as="geometry" />
        </mxCell>
        <mxCell id="bbPRQtb84Fzo9ja4CG_w-51" value="Route 53" style="sketch=0;points=[[0,0,0],[0.25,0,0],[0.5,0,0],[0.75,0,0],[1,0,0],[0,1,0],[0.25,1,0],[0.5,1,0],[0.75,1,0],[1,1,0],[0,0.25,0],[0,0.5,0],[0,0.75,0],[1,0.25,0],[1,0.5,0],[1,0.75,0]];outlineConnect=0;fontColor=#232F3E;fillColor=#8C4FFF;strokeColor=#ffffff;dashed=0;verticalLabelPosition=bottom;verticalAlign=top;align=center;html=1;fontSize=12;fontStyle=0;aspect=fixed;shape=mxgraph.aws4.resourceIcon;resIcon=mxgraph.aws4.route_53;" vertex="1" parent="bbPRQtb84Fzo9ja4CG_w-23">
          <mxGeometry x="320" y="100" width="78" height="78" as="geometry" />
        </mxCell>
        <mxCell id="bbPRQtb84Fzo9ja4CG_w-52" value="Cognito" style="sketch=0;points=[[0,0,0],[0.25,0,0],[0.5,0,0],[0.75,0,0],[1,0,0],[0,1,0],[0.25,1,0],[0.5,1,0],[0.75,1,0],[1,1,0],[0,0.25,0],[0,0.5,0],[0,0.75,0],[1,0.25,0],[1,0.5,0],[1,0.75,0]];outlineConnect=0;fontColor=#232F3E;fillColor=#DD344C;strokeColor=#ffffff;dashed=0;verticalLabelPosition=bottom;verticalAlign=top;align=center;html=1;fontSize=12;fontStyle=0;aspect=fixed;shape=mxgraph.aws4.resourceIcon;resIcon=mxgraph.aws4.cognito;" vertex="1" parent="bbPRQtb84Fzo9ja4CG_w-23">
          <mxGeometry x="320" y="220" width="78" height="78" as="geometry" />
        </mxCell>
        <mxCell id="bbPRQtb84Fzo9ja4CG_w-53" value="WAF" style="sketch=0;points=[[0,0,0],[0.25,0,0],[0.5,0,0],[0.75,0,0],[1,0,0],[0,1,0],[0.25,1,0],[0.5,1,0],[0.75,1,0],[1,1,0],[0,0.25,0],[0,0.5,0],[0,0.75,0],[1,0.25,0],[1,0.5,0],[1,0.75,0]];outlineConnect=0;fontColor=#232F3E;fillColor=#DD344C;strokeColor=#ffffff;dashed=0;verticalLabelPosition=bottom;verticalAlign=top;align=center;html=1;fontSize=12;fontStyle=0;aspect=fixed;shape=mxgraph.aws4.resourceIcon;resIcon=mxgraph.aws4.waf;" vertex="1" parent="bbPRQtb84Fzo9ja4CG_w-23">
          <mxGeometry x="320" y="330" width="78" height="78" as="geometry" />
        </mxCell>
        <mxCell id="bbPRQtb84Fzo9ja4CG_w-54" style="edgeStyle=orthogonalEdgeStyle;rounded=0;orthogonalLoop=1;jettySize=auto;html=1;" edge="1" parent="bbPRQtb84Fzo9ja4CG_w-23" source="bbPRQtb84Fzo9ja4CG_w-3" target="bbPRQtb84Fzo9ja4CG_w-49">
          <mxGeometry relative="1" as="geometry" />
        </mxCell>
        <mxCell id="bbPRQtb84Fzo9ja4CG_w-57" value="Camada de carga ECS" parent="0" visible="0" />
        <mxCell id="bbPRQtb84Fzo9ja4CG_w-61" value="" style="points=[];aspect=fixed;html=1;align=center;shadow=0;dashed=0;fillColor=#FF6A00;strokeColor=none;shape=mxgraph.alibaba_cloud.alb_application_load_balancer_02;" vertex="1" parent="bbPRQtb84Fzo9ja4CG_w-57">
          <mxGeometry x="1000" y="110" width="110" height="110" as="geometry" />
        </mxCell>
        <mxCell id="bbPRQtb84Fzo9ja4CG_w-62" value="Load Balancer" style="text;html=1;align=center;verticalAlign=middle;resizable=0;points=[];autosize=1;strokeColor=none;fillColor=none;" vertex="1" parent="bbPRQtb84Fzo9ja4CG_w-57">
          <mxGeometry x="1005" y="220" width="100" height="30" as="geometry" />
        </mxCell>
        <mxCell id="bbPRQtb84Fzo9ja4CG_w-64" value="VPC" style="sketch=0;outlineConnect=0;gradientColor=none;html=1;whiteSpace=wrap;fontSize=12;fontStyle=0;shape=mxgraph.aws4.group;grIcon=mxgraph.aws4.group_vpc;strokeColor=#879196;fillColor=none;verticalAlign=top;align=left;spacingLeft=30;fontColor=#879196;dashed=0;" vertex="1" parent="bbPRQtb84Fzo9ja4CG_w-57">
          <mxGeometry x="960" y="-80" width="700" height="680" as="geometry" />
        </mxCell>
        <mxCell id="bbPRQtb84Fzo9ja4CG_w-65" value="ECS Container - Multi AZ" style="points=[[0,0],[0.25,0],[0.5,0],[0.75,0],[1,0],[1,0.25],[1,0.5],[1,0.75],[1,1],[0.75,1],[0.5,1],[0.25,1],[0,1],[0,0.75],[0,0.5],[0,0.25]];outlineConnect=0;gradientColor=none;html=1;whiteSpace=wrap;fontSize=12;fontStyle=0;container=1;pointerEvents=0;collapsible=0;recursiveResize=0;shape=mxgraph.aws4.group;grIcon=mxgraph.aws4.group_ec2_instance_contents;strokeColor=#D86613;fillColor=none;verticalAlign=top;align=left;spacingLeft=30;fontColor=#D86613;dashed=0;" vertex="1" parent="bbPRQtb84Fzo9ja4CG_w-57">
          <mxGeometry x="1200" y="-60" width="350" height="590" as="geometry" />
        </mxCell>
        <mxCell id="bbPRQtb84Fzo9ja4CG_w-66" value="" style="sketch=0;outlineConnect=0;fontColor=#232F3E;gradientColor=none;fillColor=#ED7100;strokeColor=none;dashed=0;verticalLabelPosition=bottom;verticalAlign=top;align=center;html=1;fontSize=12;fontStyle=0;aspect=fixed;pointerEvents=1;shape=mxgraph.aws4.container_2;" vertex="1" parent="bbPRQtb84Fzo9ja4CG_w-65">
          <mxGeometry x="86" y="139" width="94.45" height="61" as="geometry" />
        </mxCell>
        <mxCell id="bbPRQtb84Fzo9ja4CG_w-67" value="" style="sketch=0;outlineConnect=0;fontColor=#232F3E;gradientColor=none;fillColor=#ED7100;strokeColor=none;dashed=0;verticalLabelPosition=bottom;verticalAlign=top;align=center;html=1;fontSize=12;fontStyle=0;aspect=fixed;pointerEvents=1;shape=mxgraph.aws4.container_2;" vertex="1" parent="bbPRQtb84Fzo9ja4CG_w-65">
          <mxGeometry x="100" y="170" width="94.45" height="61" as="geometry" />
        </mxCell>
        <mxCell id="bbPRQtb84Fzo9ja4CG_w-68" value="" style="sketch=0;outlineConnect=0;fontColor=#232F3E;gradientColor=none;fillColor=#ED7100;strokeColor=none;dashed=0;verticalLabelPosition=bottom;verticalAlign=top;align=center;html=1;fontSize=12;fontStyle=0;aspect=fixed;pointerEvents=1;shape=mxgraph.aws4.container_2;" vertex="1" parent="bbPRQtb84Fzo9ja4CG_w-65">
          <mxGeometry x="120" y="200" width="94.45" height="61" as="geometry" />
        </mxCell>
        <mxCell id="bbPRQtb84Fzo9ja4CG_w-69" value="" style="sketch=0;outlineConnect=0;fontColor=#232F3E;gradientColor=none;fillColor=#ED7100;strokeColor=none;dashed=0;verticalLabelPosition=bottom;verticalAlign=top;align=center;html=1;fontSize=12;fontStyle=0;aspect=fixed;pointerEvents=1;shape=mxgraph.aws4.container_2;" vertex="1" parent="bbPRQtb84Fzo9ja4CG_w-57">
          <mxGeometry x="1340" y="170" width="94.45" height="61" as="geometry" />
        </mxCell>
        <mxCell id="bbPRQtb84Fzo9ja4CG_w-70" value="" style="sketch=0;outlineConnect=0;fontColor=#232F3E;gradientColor=none;fillColor=#ED7100;strokeColor=none;dashed=0;verticalLabelPosition=bottom;verticalAlign=top;align=center;html=1;fontSize=12;fontStyle=0;aspect=fixed;pointerEvents=1;shape=mxgraph.aws4.container_2;" vertex="1" parent="bbPRQtb84Fzo9ja4CG_w-57">
          <mxGeometry x="1286" y="280" width="94.45" height="61" as="geometry" />
        </mxCell>
        <mxCell id="bbPRQtb84Fzo9ja4CG_w-71" value="" style="sketch=0;outlineConnect=0;fontColor=#232F3E;gradientColor=none;fillColor=#ED7100;strokeColor=none;dashed=0;verticalLabelPosition=bottom;verticalAlign=top;align=center;html=1;fontSize=12;fontStyle=0;aspect=fixed;pointerEvents=1;shape=mxgraph.aws4.container_2;" vertex="1" parent="bbPRQtb84Fzo9ja4CG_w-57">
          <mxGeometry x="1300" y="311" width="94.45" height="61" as="geometry" />
        </mxCell>
        <mxCell id="bbPRQtb84Fzo9ja4CG_w-72" value="" style="sketch=0;outlineConnect=0;fontColor=#232F3E;gradientColor=none;fillColor=#ED7100;strokeColor=none;dashed=0;verticalLabelPosition=bottom;verticalAlign=top;align=center;html=1;fontSize=12;fontStyle=0;aspect=fixed;pointerEvents=1;shape=mxgraph.aws4.container_2;" vertex="1" parent="bbPRQtb84Fzo9ja4CG_w-57">
          <mxGeometry x="1320" y="341" width="94.45" height="61" as="geometry" />
        </mxCell>
        <mxCell id="bbPRQtb84Fzo9ja4CG_w-73" value="" style="sketch=0;outlineConnect=0;fontColor=#232F3E;gradientColor=none;fillColor=#ED7100;strokeColor=none;dashed=0;verticalLabelPosition=bottom;verticalAlign=top;align=center;html=1;fontSize=12;fontStyle=0;aspect=fixed;pointerEvents=1;shape=mxgraph.aws4.container_2;" vertex="1" parent="bbPRQtb84Fzo9ja4CG_w-57">
          <mxGeometry x="1340" y="371" width="94.45" height="61" as="geometry" />
        </mxCell>
        <mxCell id="bbPRQtb84Fzo9ja4CG_w-74" value="Camada de carga Lambda" parent="0" />
        <mxCell id="bbPRQtb84Fzo9ja4CG_w-97" value="" style="rounded=0;whiteSpace=wrap;html=1;" vertex="1" parent="bbPRQtb84Fzo9ja4CG_w-74">
          <mxGeometry x="1200" y="-40" width="260" height="520" as="geometry" />
        </mxCell>
        <mxCell id="bbPRQtb84Fzo9ja4CG_w-75" value="" style="points=[];aspect=fixed;html=1;align=center;shadow=0;dashed=0;fillColor=#FF6A00;strokeColor=none;shape=mxgraph.alibaba_cloud.alb_application_load_balancer_02;" vertex="1" parent="bbPRQtb84Fzo9ja4CG_w-74">
          <mxGeometry x="980" y="100" width="110" height="110" as="geometry" />
        </mxCell>
        <mxCell id="bbPRQtb84Fzo9ja4CG_w-76" value="Load Balancer" style="text;html=1;align=center;verticalAlign=middle;resizable=0;points=[];autosize=1;strokeColor=none;fillColor=none;" vertex="1" parent="bbPRQtb84Fzo9ja4CG_w-74">
          <mxGeometry x="985" y="210" width="100" height="30" as="geometry" />
        </mxCell>
        <mxCell id="bbPRQtb84Fzo9ja4CG_w-77" value="VPC" style="sketch=0;outlineConnect=0;gradientColor=none;html=1;whiteSpace=wrap;fontSize=12;fontStyle=0;shape=mxgraph.aws4.group;grIcon=mxgraph.aws4.group_vpc;strokeColor=#879196;fillColor=none;verticalAlign=top;align=left;spacingLeft=30;fontColor=#879196;dashed=0;" vertex="1" parent="bbPRQtb84Fzo9ja4CG_w-74">
          <mxGeometry x="940" y="-90" width="700" height="680" as="geometry" />
        </mxCell>
        <mxCell id="bbPRQtb84Fzo9ja4CG_w-87" value="" style="outlineConnect=0;dashed=0;verticalLabelPosition=bottom;verticalAlign=top;align=center;html=1;shape=mxgraph.aws3.lambda_function;fillColor=#F58534;gradientColor=none;" vertex="1" parent="bbPRQtb84Fzo9ja4CG_w-74">
          <mxGeometry x="1260" width="69" height="72" as="geometry" />
        </mxCell>
        <mxCell id="bbPRQtb84Fzo9ja4CG_w-88" value="" style="outlineConnect=0;dashed=0;verticalLabelPosition=bottom;verticalAlign=top;align=center;html=1;shape=mxgraph.aws3.lambda_function;fillColor=#F58534;gradientColor=none;" vertex="1" parent="bbPRQtb84Fzo9ja4CG_w-74">
          <mxGeometry x="1290" y="20" width="69" height="72" as="geometry" />
        </mxCell>
        <mxCell id="bbPRQtb84Fzo9ja4CG_w-89" value="" style="outlineConnect=0;dashed=0;verticalLabelPosition=bottom;verticalAlign=top;align=center;html=1;shape=mxgraph.aws3.lambda_function;fillColor=#F58534;gradientColor=none;" vertex="1" parent="bbPRQtb84Fzo9ja4CG_w-74">
          <mxGeometry x="1320" y="40" width="69" height="72" as="geometry" />
        </mxCell>
        <mxCell id="bbPRQtb84Fzo9ja4CG_w-90" value="" style="outlineConnect=0;dashed=0;verticalLabelPosition=bottom;verticalAlign=top;align=center;html=1;shape=mxgraph.aws3.lambda_function;fillColor=#F58534;gradientColor=none;" vertex="1" parent="bbPRQtb84Fzo9ja4CG_w-74">
          <mxGeometry x="1260" y="150" width="69" height="72" as="geometry" />
        </mxCell>
        <mxCell id="bbPRQtb84Fzo9ja4CG_w-91" value="" style="outlineConnect=0;dashed=0;verticalLabelPosition=bottom;verticalAlign=top;align=center;html=1;shape=mxgraph.aws3.lambda_function;fillColor=#F58534;gradientColor=none;" vertex="1" parent="bbPRQtb84Fzo9ja4CG_w-74">
          <mxGeometry x="1290" y="170" width="69" height="72" as="geometry" />
        </mxCell>
        <mxCell id="bbPRQtb84Fzo9ja4CG_w-92" value="" style="outlineConnect=0;dashed=0;verticalLabelPosition=bottom;verticalAlign=top;align=center;html=1;shape=mxgraph.aws3.lambda_function;fillColor=#F58534;gradientColor=none;" vertex="1" parent="bbPRQtb84Fzo9ja4CG_w-74">
          <mxGeometry x="1320" y="190" width="69" height="72" as="geometry" />
        </mxCell>
        <mxCell id="bbPRQtb84Fzo9ja4CG_w-93" value="" style="outlineConnect=0;dashed=0;verticalLabelPosition=bottom;verticalAlign=top;align=center;html=1;shape=mxgraph.aws3.lambda_function;fillColor=#F58534;gradientColor=none;" vertex="1" parent="bbPRQtb84Fzo9ja4CG_w-74">
          <mxGeometry x="1260" y="330" width="69" height="72" as="geometry" />
        </mxCell>
        <mxCell id="bbPRQtb84Fzo9ja4CG_w-94" value="" style="outlineConnect=0;dashed=0;verticalLabelPosition=bottom;verticalAlign=top;align=center;html=1;shape=mxgraph.aws3.lambda_function;fillColor=#F58534;gradientColor=none;" vertex="1" parent="bbPRQtb84Fzo9ja4CG_w-74">
          <mxGeometry x="1290" y="350" width="69" height="72" as="geometry" />
        </mxCell>
        <mxCell id="bbPRQtb84Fzo9ja4CG_w-95" value="" style="outlineConnect=0;dashed=0;verticalLabelPosition=bottom;verticalAlign=top;align=center;html=1;shape=mxgraph.aws3.lambda_function;fillColor=#F58534;gradientColor=none;" vertex="1" parent="bbPRQtb84Fzo9ja4CG_w-74">
          <mxGeometry x="1320" y="370" width="69" height="72" as="geometry" />
        </mxCell>
        <mxCell id="bbPRQtb84Fzo9ja4CG_w-98" value="LAMBDAS" style="text;html=1;align=center;verticalAlign=middle;whiteSpace=wrap;rounded=0;" vertex="1" parent="bbPRQtb84Fzo9ja4CG_w-74">
          <mxGeometry x="1290" y="450" width="60" height="30" as="geometry" />
        </mxCell>
        <mxCell id="bbPRQtb84Fzo9ja4CG_w-99" value="Conexao de Banco" parent="0" />
        <mxCell id="bbPRQtb84Fzo9ja4CG_w-104" style="edgeStyle=orthogonalEdgeStyle;rounded=0;orthogonalLoop=1;jettySize=auto;html=1;" edge="1" parent="bbPRQtb84Fzo9ja4CG_w-99" source="bbPRQtb84Fzo9ja4CG_w-100" target="bbPRQtb84Fzo9ja4CG_w-101">
          <mxGeometry relative="1" as="geometry" />
        </mxCell>
        <mxCell id="bbPRQtb84Fzo9ja4CG_w-100" value="" style="sketch=0;outlineConnect=0;fontColor=#232F3E;gradientColor=none;fillColor=#C925D1;strokeColor=none;dashed=0;verticalLabelPosition=bottom;verticalAlign=top;align=center;html=1;fontSize=12;fontStyle=0;aspect=fixed;pointerEvents=1;shape=mxgraph.aws4.rds_proxy;" vertex="1" parent="bbPRQtb84Fzo9ja4CG_w-99">
          <mxGeometry x="1770" y="110" width="78" height="78" as="geometry" />
        </mxCell>
        <mxCell id="bbPRQtb84Fzo9ja4CG_w-101" value="Read Replica" style="sketch=0;points=[[0,0,0],[0.25,0,0],[0.5,0,0],[0.75,0,0],[1,0,0],[0,1,0],[0.25,1,0],[0.5,1,0],[0.75,1,0],[1,1,0],[0,0.25,0],[0,0.5,0],[0,0.75,0],[1,0.25,0],[1,0.5,0],[1,0.75,0]];outlineConnect=0;fontColor=#232F3E;fillColor=#C925D1;strokeColor=#ffffff;dashed=0;verticalLabelPosition=bottom;verticalAlign=top;align=center;html=1;fontSize=12;fontStyle=0;aspect=fixed;shape=mxgraph.aws4.resourceIcon;resIcon=mxgraph.aws4.rds;" vertex="1" parent="bbPRQtb84Fzo9ja4CG_w-99">
          <mxGeometry x="1910" y="40" width="78" height="78" as="geometry" />
        </mxCell>
        <mxCell id="bbPRQtb84Fzo9ja4CG_w-102" value="Write Replica" style="sketch=0;points=[[0,0,0],[0.25,0,0],[0.5,0,0],[0.75,0,0],[1,0,0],[0,1,0],[0.25,1,0],[0.5,1,0],[0.75,1,0],[1,1,0],[0,0.25,0],[0,0.5,0],[0,0.75,0],[1,0.25,0],[1,0.5,0],[1,0.75,0]];outlineConnect=0;fontColor=#232F3E;fillColor=#C925D1;strokeColor=#ffffff;dashed=0;verticalLabelPosition=bottom;verticalAlign=top;align=center;html=1;fontSize=12;fontStyle=0;aspect=fixed;shape=mxgraph.aws4.resourceIcon;resIcon=mxgraph.aws4.rds;" vertex="1" parent="bbPRQtb84Fzo9ja4CG_w-99">
          <mxGeometry x="1910" y="200" width="78" height="78" as="geometry" />
        </mxCell>
        <mxCell id="bbPRQtb84Fzo9ja4CG_w-103" style="edgeStyle=orthogonalEdgeStyle;rounded=0;orthogonalLoop=1;jettySize=auto;html=1;entryX=0;entryY=0.5;entryDx=0;entryDy=0;entryPerimeter=0;" edge="1" parent="bbPRQtb84Fzo9ja4CG_w-99" source="bbPRQtb84Fzo9ja4CG_w-100" target="bbPRQtb84Fzo9ja4CG_w-102">
          <mxGeometry relative="1" as="geometry" />
        </mxCell>
        <mxCell id="bbPRQtb84Fzo9ja4CG_w-105" value="RDS Postgre SQL" style="outlineConnect=0;dashed=0;verticalLabelPosition=bottom;verticalAlign=top;align=center;html=1;shape=mxgraph.aws3.rds;fillColor=#2E73B8;gradientColor=none;" vertex="1" parent="bbPRQtb84Fzo9ja4CG_w-99">
          <mxGeometry x="2080" y="130" width="72" height="81" as="geometry" />
        </mxCell>
        <mxCell id="bbPRQtb84Fzo9ja4CG_w-106" value="Datamesh" parent="0" />
        <mxCell id="bbPRQtb84Fzo9ja4CG_w-107" value="" style="sketch=0;points=[[0,0,0],[0.25,0,0],[0.5,0,0],[0.75,0,0],[1,0,0],[0,1,0],[0.25,1,0],[0.5,1,0],[0.75,1,0],[1,1,0],[0,0.25,0],[0,0.5,0],[0,0.75,0],[1,0.25,0],[1,0.5,0],[1,0.75,0]];outlineConnect=0;fontColor=#232F3E;fillColor=#8C4FFF;strokeColor=#ffffff;dashed=0;verticalLabelPosition=bottom;verticalAlign=top;align=center;html=1;fontSize=12;fontStyle=0;aspect=fixed;shape=mxgraph.aws4.resourceIcon;resIcon=mxgraph.aws4.glue;" vertex="1" parent="bbPRQtb84Fzo9ja4CG_w-106">
          <mxGeometry x="2080" y="507" width="78" height="78" as="geometry" />
        </mxCell>
        <mxCell id="bbPRQtb84Fzo9ja4CG_w-108" value="AWS Cloud" style="sketch=0;outlineConnect=0;gradientColor=none;html=1;whiteSpace=wrap;fontSize=12;fontStyle=0;shape=mxgraph.aws4.group;grIcon=mxgraph.aws4.group_aws_cloud;strokeColor=#AAB7B8;fillColor=none;verticalAlign=top;align=left;spacingLeft=30;fontColor=#AAB7B8;dashed=0;" vertex="1" parent="bbPRQtb84Fzo9ja4CG_w-106">
          <mxGeometry x="1780" y="390" width="640" height="440" as="geometry" />
        </mxCell>
        <mxCell id="bbPRQtb84Fzo9ja4CG_w-113" value="TEMP" style="sketch=0;points=[[0,0,0],[0.25,0,0],[0.5,0,0],[0.75,0,0],[1,0,0],[0,1,0],[0.25,1,0],[0.5,1,0],[0.75,1,0],[1,1,0],[0,0.25,0],[0,0.5,0],[0,0.75,0],[1,0.25,0],[1,0.5,0],[1,0.75,0]];outlineConnect=0;fontColor=#232F3E;fillColor=#7AA116;strokeColor=#ffffff;dashed=0;verticalLabelPosition=bottom;verticalAlign=top;align=center;html=1;fontSize=12;fontStyle=0;aspect=fixed;shape=mxgraph.aws4.resourceIcon;resIcon=mxgraph.aws4.s3;" vertex="1" parent="bbPRQtb84Fzo9ja4CG_w-106">
          <mxGeometry x="2240" y="650" width="70" height="70" as="geometry" />
        </mxCell>
        <mxCell id="bbPRQtb84Fzo9ja4CG_w-114" value="SPEC" style="sketch=0;points=[[0,0,0],[0.25,0,0],[0.5,0,0],[0.75,0,0],[1,0,0],[0,1,0],[0.25,1,0],[0.5,1,0],[0.75,1,0],[1,1,0],[0,0.25,0],[0,0.5,0],[0,0.75,0],[1,0.25,0],[1,0.5,0],[1,0.75,0]];outlineConnect=0;fontColor=#232F3E;fillColor=#7AA116;strokeColor=#ffffff;dashed=0;verticalLabelPosition=bottom;verticalAlign=top;align=center;html=1;fontSize=12;fontStyle=0;aspect=fixed;shape=mxgraph.aws4.resourceIcon;resIcon=mxgraph.aws4.s3;" vertex="1" parent="bbPRQtb84Fzo9ja4CG_w-106">
          <mxGeometry x="2140" y="650" width="70" height="70" as="geometry" />
        </mxCell>
        <mxCell id="bbPRQtb84Fzo9ja4CG_w-115" value="SOT" style="sketch=0;points=[[0,0,0],[0.25,0,0],[0.5,0,0],[0.75,0,0],[1,0,0],[0,1,0],[0.25,1,0],[0.5,1,0],[0.75,1,0],[1,1,0],[0,0.25,0],[0,0.5,0],[0,0.75,0],[1,0.25,0],[1,0.5,0],[1,0.75,0]];outlineConnect=0;fontColor=#232F3E;fillColor=#7AA116;strokeColor=#ffffff;dashed=0;verticalLabelPosition=bottom;verticalAlign=top;align=center;html=1;fontSize=12;fontStyle=0;aspect=fixed;shape=mxgraph.aws4.resourceIcon;resIcon=mxgraph.aws4.s3;" vertex="1" parent="bbPRQtb84Fzo9ja4CG_w-106">
          <mxGeometry x="2036" y="650" width="70" height="70" as="geometry" />
        </mxCell>
        <mxCell id="bbPRQtb84Fzo9ja4CG_w-116" value="SOR" style="sketch=0;points=[[0,0,0],[0.25,0,0],[0.5,0,0],[0.75,0,0],[1,0,0],[0,1,0],[0.25,1,0],[0.5,1,0],[0.75,1,0],[1,1,0],[0,0.25,0],[0,0.5,0],[0,0.75,0],[1,0.25,0],[1,0.5,0],[1,0.75,0]];outlineConnect=0;fontColor=#232F3E;fillColor=#7AA116;strokeColor=#ffffff;dashed=0;verticalLabelPosition=bottom;verticalAlign=top;align=center;html=1;fontSize=12;fontStyle=0;aspect=fixed;shape=mxgraph.aws4.resourceIcon;resIcon=mxgraph.aws4.s3;" vertex="1" parent="bbPRQtb84Fzo9ja4CG_w-106">
          <mxGeometry x="1930" y="650" width="70" height="70" as="geometry" />
        </mxCell>
        <mxCell id="bbPRQtb84Fzo9ja4CG_w-117" value="" style="sketch=0;outlineConnect=0;fontColor=#232F3E;gradientColor=none;fillColor=#8C4FFF;strokeColor=none;dashed=0;verticalLabelPosition=bottom;verticalAlign=top;align=center;html=1;fontSize=12;fontStyle=0;aspect=fixed;pointerEvents=1;shape=mxgraph.aws4.glue_data_catalog;" vertex="1" parent="bbPRQtb84Fzo9ja4CG_w-106">
          <mxGeometry x="1820" y="520" width="72" height="78" as="geometry" />
        </mxCell>
      </root>
    </mxGraphModel>
  </diagram>
</mxfile>
